<?xml version="1.0" standalone="no"?>
<!DOCTYPE svg PUBLIC "-//W3C//DTD SVG 20010904//EN"
 "http://www.w3.org/TR/2001/REC-SVG-20010904/DTD/svg10.dtd">
<svg version="1.0" xmlns="http://www.w3.org/2000/svg"
 width="234.000000pt" height="151.000000pt" viewBox="0 0 234.000000 151.000000"
 preserveAspectRatio="xMidYMid meet">

<g transform="translate(0.000000,151.000000) scale(0.100000,-0.100000)"
fill="#000000" stroke="none">
<path d="M830 978 c-52 -27 -80 -73 -80 -132 0 -31 7 -45 35 -72 l35 -33 -17
-61 c-14 -51 -20 -61 -37 -59 -73 5 -121 -24 -132 -81 -6 -30 -7 -30 -70 -30
-36 0 -64 -4 -64 -10 0 -6 28 -10 64 -10 56 0 66 -3 71 -20 3 -11 18 -23 33
-26 15 -4 32 -10 38 -15 5 -5 35 -9 65 -10 44 -2 63 3 97 25 23 14 42 31 42
36 0 6 164 10 459 10 296 0 462 4 466 10 4 6 -19 10 -63 10 l-70 0 5 43 c2 24
-2 53 -9 67 -17 32 -72 59 -121 60 -33 0 -40 4 -52 32 -13 31 -12 33 15 50 83
50 44 198 -61 228 -54 16 -70 12 -105 -25 -33 -35 -34 -36 -76 -24 -60 17
-203 17 -262 0 -37 -11 -51 -12 -54 -3 -19 57 -85 75 -152 40z m501 -70 c76
-35 112 -69 150 -141 35 -68 34 -92 -4 -106 -40 -15 -50 -36 -45 -96 l5 -55
-264 0 -263 0 -14 35 c-10 23 -27 41 -51 52 -35 17 -37 19 -30 58 20 131 126
250 246 275 79 16 210 6 270 -22z m211 -283 c0 -5 -5 -11 -11 -13 -6 -2 -11 4
-11 13 0 9 5 15 11 13 6 -2 11 -8 11 -13z m60 0 c0 -5 -5 -11 -11 -13 -6 -2
-11 4 -11 13 0 9 5 15 11 13 6 -2 11 -8 11 -13z m-112 -35 c0 -11 -4 -20 -9
-20 -14 0 -23 18 -16 30 10 17 25 11 25 -10z m165 -10 c-5 -8 -11 -8 -17 -2
-6 6 -7 16 -3 22 5 8 11 8 17 2 6 -6 7 -16 3 -22z m-38 -26 c34 -34 20 -46
-52 -42 -65 3 -77 16 -46 47 28 28 67 26 98 -5z"/>
<path d="M1004 760 c-12 -4 -31 -21 -44 -37 -18 -23 -21 -37 -18 -81 3 -31 12
-60 21 -69 15 -16 19 -16 52 0 20 10 35 24 35 34 0 10 11 42 25 71 19 41 22
58 15 73 -11 20 -49 24 -86 9z"/>
<path d="M1252 758 c-16 -16 -15 -51 1 -66 6 -7 19 -34 27 -60 10 -31 24 -51
42 -61 24 -14 28 -14 47 3 32 29 38 98 12 139 -31 50 -100 74 -129 45z"/>
<path d="M1101 676 c-17 -20 2 -54 34 -62 14 -3 25 -12 25 -19 0 -20 -26 -36
-46 -29 -14 4 -16 3 -5 -4 17 -12 109 -13 117 0 3 5 0 9 -7 7 -51 -6 -58 23
-13 50 36 22 46 54 18 65 -31 12 -111 6 -123 -8z"/>
</g>
</svg>
